<svg viewBox="0 0 48 48" xmlns="http://www.w3.org/2000/svg"><g fill="none" fill-rule="evenodd"><path d="M9 35.394v5.605h31v-5.605c-2.457-.296-5.326-1.438-8.607-3.424-1.107-.67-2.601-1.863-1.135-8.291l.032-.138c.955-.498 1.739-1.634 2-3.091.234-1.29.005-2.548-.538-3.455l.707-3.168s.172-1.377.138-2.093c-.033-.752-.184-1.292-.316-1.901-.3-1.39-1.471-2.717-1.471-2.717h-.013C29.97 6.215 27.435 5.008 24.512 5h-.024c-2.923.007-5.457 1.214-6.286 2.115h-.01s-1.174 1.327-1.472 2.717c-.135.609-.285 1.149-.319 1.9-.032.717.139 2.094.139 2.094l.706 3.168c-.542.907-.769 2.166-.536 3.455.264 1.457 1.046 2.593 2 3.09l.03.139c1.468 6.428-.026 7.622-1.133 8.29-3.282 1.987-6.15 3.129-8.607 3.425Z" fill="#ffffff" class="fill-000000"></path></g></svg>